<svg width="40" height="40" viewBox="0 0 40 40" fill="none" xmlns="http://www.w3.org/2000/svg">
<g clip-path="url(#clip0_28_18)">
<g filter="url(#filter0_d_28_18)">
<path fill-rule="evenodd" clip-rule="evenodd" d="M27 20C27 23.866 23.866 27 20 27C16.134 27 13 23.866 13 20C13 16.134 16.134 13 20 13C23.866 13 27 16.134 27 20ZM25 20C25 22.7614 22.7614 25 20 25C17.2386 25 15 22.7614 15 20C15 17.2386 17.2386 15 20 15C22.7614 15 25 17.2386 25 20Z" fill="#6572A1"/>
<path fill-rule="evenodd" clip-rule="evenodd" d="M24 6C24 4.89543 23.1046 4 22 4H18C16.8954 4 16 4.89543 16 6V7.92891C16 8.81981 14.9229 9.26598 14.2929 8.63601L12.9289 7.27207C12.1479 6.49102 10.8816 6.49102 10.1005 7.27207L7.2721 10.1005C6.49105 10.8815 6.49105 12.1479 7.2721 12.9289L8.63606 14.2929C9.26603 14.9229 8.81986 16 7.92896 16H6C4.89543 16 4 16.8954 4 18V22C4 23.1046 4.89543 24 6 24H7.92894C8.81985 24 9.26602 25.0771 8.63605 25.7071L7.27209 27.0711C6.49104 27.8521 6.49104 29.1184 7.27209 29.8995L10.1005 32.7279C10.8816 33.509 12.1479 33.509 12.9289 32.7279L14.2929 31.364C14.9229 30.734 16 31.1802 16 32.0711V34C16 35.1046 16.8954 36 18 36H22C23.1046 36 24 35.1046 24 34V32.071C24 31.1801 25.0771 30.734 25.7071 31.3639L27.0711 32.7279C27.8521 33.509 29.1185 33.509 29.8995 32.7279L32.7279 29.8995C33.509 29.1184 33.509 27.8521 32.7279 27.0711L31.364 25.7071C30.734 25.0771 31.1802 24 32.0711 24H34C35.1046 24 36 23.1046 36 22V18C36 16.8954 35.1046 16 34 16H32.0711C31.1802 16 30.734 14.9229 31.364 14.2929L32.7279 12.9289C33.509 12.1479 33.509 10.8816 32.7279 10.1005L29.8995 7.27208C29.1185 6.49103 27.8521 6.49103 27.0711 7.27208L25.7071 8.63605C25.0771 9.26601 24 8.81985 24 7.92894V6ZM18 6H22V7.92894C22 10.6017 25.2314 11.9402 27.1213 10.0503L28.4853 8.68629L31.3137 11.5147L29.9498 12.8787C28.0599 14.7686 29.3984 18 32.0711 18H34V22H32.0711C29.3984 22 28.0599 25.2314 29.9498 27.1213L31.3137 28.4853L28.4853 31.3137L27.1213 29.9497C25.2314 28.0598 22 29.3983 22 32.071V34H18V32.0711C18 29.3984 14.7686 28.0599 12.8787 29.9498L11.5147 31.3137L8.6863 28.4853L10.0503 27.1213C11.9402 25.2314 10.6016 22 7.92894 22H6L6 18H7.92896C10.6017 18 11.9402 14.7686 10.0503 12.8787L8.68631 11.5147L11.5147 8.68628L12.8787 10.0502C14.7686 11.9401 18 10.6016 18 7.92891V6Z" fill="#6572A1"/>
</g>
</g>
<defs>
<filter id="filter0_d_28_18" x="0" y="4" width="40" height="40" filterUnits="userSpaceOnUse" color-interpolation-filters="sRGB">
<feFlood flood-opacity="0" result="BackgroundImageFix"/>
<feColorMatrix in="SourceAlpha" type="matrix" values="0 0 0 0 0 0 0 0 0 0 0 0 0 0 0 0 0 0 127 0" result="hardAlpha"/>
<feOffset dy="4"/>
<feGaussianBlur stdDeviation="2"/>
<feComposite in2="hardAlpha" operator="out"/>
<feColorMatrix type="matrix" values="0 0 0 0 0 0 0 0 0 0 0 0 0 0 0 0 0 0 0.25 0"/>
<feBlend mode="normal" in2="BackgroundImageFix" result="effect1_dropShadow_28_18"/>
<feBlend mode="normal" in="SourceGraphic" in2="effect1_dropShadow_28_18" result="shape"/>
</filter>
<clipPath id="clip0_28_18">
<rect width="40" height="40" fill="white"/>
</clipPath>
</defs>
</svg>
